<?xml version="1.0"?>
<svg width="76.624" height="65.326" xmlns="http://www.w3.org/2000/svg" xmlns:svg="http://www.w3.org/2000/svg" data-name="Group 1282">
 <g class="layer">
  <title>Layer 1</title>
  <path d="m72.86,61.1a1.2,1.2 0 0 0 1.21,-1.26c0,-0.9 -0.54,-1.33 -1.66,-1.33l-1.8,0l0,4.71l0.68,0l0,-2.06l0.83,0l0.02,0.03l1.29,2.03l0.73,0l-1.39,-2.1l0.09,-0.02zm-0.78,-0.47l-0.79,0l0,-1.59l1,0c0.51,0 1.1,0.08 1.1,0.76c0,0.77 -0.6,0.83 -1.32,0.83" data-name="Path 2525" fill="#ffffff" id="Path_2525"/>
  <path d="m55.2,55.21l-9.6,0l0,-15.03c0,-3.59 -0.06,-8.2 -4.99,-8.2c-5,0 -5.77,3.9 -5.77,7.93l0,15.3l-9.6,0l0,-30.92l9.22,0l0,4.23l0.13,0a10.1,10.1 0 0 1 9.09,-5c9.73,0 11.52,6.4 11.52,14.73l0,16.96zm-40.79,-35.14a5.57,5.57 0 1 1 5.57,-5.58a5.57,5.57 0 0 1 -5.57,5.58m4.8,35.14l-9.61,0l0,-30.92l9.61,0l0,30.92zm40.78,-55.2l-55.21,0a4.73,4.73 0 0 0 -4.79,4.67l0,55.44a4.73,4.73 0 0 0 4.79,4.67l55.21,0a4.74,4.74 0 0 0 4.8,-4.67l0,-55.45a4.74,4.74 0 0 0 -4.8,-4.67" data-name="Path 2520" fill="#ffffff" id="Path_2520"/>
  <path d="m1156.53,264.22a4.42,4.42 0 1 0 0.08,0l-0.08,0m0,8.33a3.87,3.87 0 1 1 3.8,-3.94c0,0.02 0,0.05 0,0.07a3.79,3.79 0 0 1 -3.7,3.87l-0.1,0" data-name="Path 2526" fill="#0a66c2" id="Path_2526" transform="translate(-1084.362 -207.809)"/>
 </g>
</svg>