<?xml version="1.0"?>
<svg width="477.156" height="477.156" xmlns="http://www.w3.org/2000/svg" xmlns:svg="http://www.w3.org/2000/svg" enable-background="new 0 0 477.156 477.156" version="1.1" xml:space="preserve">
 <g class="layer">
  <title>Layer 1</title>
  <g id="svg_1">
   <path d="m475.01,380.32l-2.38,-7.16c-5.62,-16.72 -24.06,-34.16 -41,-38.75l-62.68,-17.13c-17,-4.62 -41.25,1.6 -53.69,14.04l-22.69,22.68c-82.45,-22.28 -147.11,-86.93 -169.36,-169.37l22.69,-22.69c12.44,-12.44 18.66,-36.66 14.03,-53.66l-17.09,-62.72c-4.63,-16.96 -22.1,-35.4 -38.78,-40.96l-7.16,-2.41c-16.72,-5.56 -40.56,0.06 -53,12.5l-33.94,33.97c-6.06,6.03 -9.94,23.28 -9.94,23.34c-1.18,107.75 41.07,211.56 117.29,287.78c76.03,76.03 179.45,118.22 286.89,117.32c0.56,0 18.31,-3.82 24.37,-9.85l33.94,-33.94c12.44,-12.43 18.06,-36.27 12.5,-52.99z" fill="#ffffff" id="svg_2"/>
  </g>
  <g id="svg_3"/>
  <g id="svg_4"/>
  <g id="svg_5"/>
  <g id="svg_6"/>
  <g id="svg_7"/>
  <g id="svg_8"/>
  <g id="svg_9"/>
  <g id="svg_10"/>
  <g id="svg_11"/>
  <g id="svg_12"/>
  <g id="svg_13"/>
  <g id="svg_14"/>
  <g id="svg_15"/>
  <g id="svg_16"/>
  <g id="svg_17"/>
 </g>
</svg>